<mxfile host="app.diagrams.net" modified="2024-04-01T15:22:44.863Z" agent="Mozilla/5.0 (Windows NT 10.0; Win64; x64) AppleWebKit/537.36 (KHTML, like Gecko) Chrome/123.0.0.0 Safari/537.36" etag="QwA42LyGGB9w43TFHDli" version="24.2.1" type="github">
  <diagram name="Page-1" id="Tt8ntewG_qiVopKsJCyd">
    <mxGraphModel dx="1191" dy="617" grid="1" gridSize="10" guides="1" tooltips="1" connect="1" arrows="1" fold="1" page="1" pageScale="1" pageWidth="850" pageHeight="1100" math="0" shadow="0">
      <root>
        <mxCell id="0" />
        <mxCell id="1" parent="0" />
        <mxCell id="Tbf_xBtVYPt_37wN60Tl-2" style="edgeStyle=orthogonalEdgeStyle;rounded=0;orthogonalLoop=1;jettySize=auto;html=1;exitX=0.5;exitY=1;exitDx=0;exitDy=0;" edge="1" parent="1" source="Tbf_xBtVYPt_37wN60Tl-1" target="Tbf_xBtVYPt_37wN60Tl-3">
          <mxGeometry relative="1" as="geometry">
            <mxPoint x="425" y="100" as="targetPoint" />
          </mxGeometry>
        </mxCell>
        <mxCell id="Tbf_xBtVYPt_37wN60Tl-1" value="(0) UCLN(int m, int n)" style="rounded=1;whiteSpace=wrap;html=1;" vertex="1" parent="1">
          <mxGeometry x="365" y="10" width="120" height="40" as="geometry" />
        </mxCell>
        <mxCell id="Tbf_xBtVYPt_37wN60Tl-4" style="edgeStyle=orthogonalEdgeStyle;rounded=0;orthogonalLoop=1;jettySize=auto;html=1;exitX=1;exitY=0.5;exitDx=0;exitDy=0;" edge="1" parent="1" source="Tbf_xBtVYPt_37wN60Tl-3" target="Tbf_xBtVYPt_37wN60Tl-5">
          <mxGeometry relative="1" as="geometry">
            <mxPoint x="510" y="110" as="targetPoint" />
          </mxGeometry>
        </mxCell>
        <mxCell id="Tbf_xBtVYPt_37wN60Tl-8" style="edgeStyle=orthogonalEdgeStyle;rounded=0;orthogonalLoop=1;jettySize=auto;html=1;exitX=0.5;exitY=1;exitDx=0;exitDy=0;entryX=0.5;entryY=0;entryDx=0;entryDy=0;" edge="1" parent="1" source="Tbf_xBtVYPt_37wN60Tl-3" target="Tbf_xBtVYPt_37wN60Tl-7">
          <mxGeometry relative="1" as="geometry" />
        </mxCell>
        <mxCell id="Tbf_xBtVYPt_37wN60Tl-3" value="&lt;span id=&quot;selected_text&quot;&gt;&lt;/span&gt;&lt;span id=&quot;selected_text&quot;&gt;&lt;/span&gt;(1) m &amp;lt; 0" style="rhombus;whiteSpace=wrap;html=1;" vertex="1" parent="1">
          <mxGeometry x="370" y="90" width="110" height="40" as="geometry" />
        </mxCell>
        <mxCell id="Tbf_xBtVYPt_37wN60Tl-5" value="&lt;span id=&quot;selected_text&quot;&gt;&lt;/span&gt;&lt;span id=&quot;selected_text&quot;&gt;&lt;/span&gt;(2) m = -m" style="rounded=1;whiteSpace=wrap;html=1;" vertex="1" parent="1">
          <mxGeometry x="530" y="90" width="80" height="40" as="geometry" />
        </mxCell>
        <mxCell id="Tbf_xBtVYPt_37wN60Tl-18" style="edgeStyle=orthogonalEdgeStyle;rounded=0;orthogonalLoop=1;jettySize=auto;html=1;exitX=0.5;exitY=1;exitDx=0;exitDy=0;entryX=0.5;entryY=0;entryDx=0;entryDy=0;" edge="1" parent="1" source="Tbf_xBtVYPt_37wN60Tl-7" target="Tbf_xBtVYPt_37wN60Tl-13">
          <mxGeometry relative="1" as="geometry" />
        </mxCell>
        <mxCell id="Tbf_xBtVYPt_37wN60Tl-7" value="&lt;span id=&quot;selected_text&quot;&gt;&lt;/span&gt;&lt;span id=&quot;selected_text&quot;&gt;&lt;/span&gt;&lt;span id=&quot;selected_text&quot;&gt;&lt;/span&gt;(3) n &amp;lt; 0" style="rhombus;whiteSpace=wrap;html=1;" vertex="1" parent="1">
          <mxGeometry x="380" y="170" width="90" height="40" as="geometry" />
        </mxCell>
        <mxCell id="Tbf_xBtVYPt_37wN60Tl-9" style="edgeStyle=orthogonalEdgeStyle;rounded=0;orthogonalLoop=1;jettySize=auto;html=1;exitX=1;exitY=0.5;exitDx=0;exitDy=0;" edge="1" parent="1" target="Tbf_xBtVYPt_37wN60Tl-10">
          <mxGeometry relative="1" as="geometry">
            <mxPoint x="510" y="190" as="targetPoint" />
            <mxPoint x="465" y="190" as="sourcePoint" />
          </mxGeometry>
        </mxCell>
        <mxCell id="Tbf_xBtVYPt_37wN60Tl-10" value="&lt;span id=&quot;selected_text&quot;&gt;&lt;/span&gt;(4) n = -n" style="rounded=1;whiteSpace=wrap;html=1;" vertex="1" parent="1">
          <mxGeometry x="530" y="170" width="80" height="40" as="geometry" />
        </mxCell>
        <mxCell id="Tbf_xBtVYPt_37wN60Tl-11" style="edgeStyle=orthogonalEdgeStyle;rounded=0;orthogonalLoop=1;jettySize=auto;html=1;exitX=1;exitY=0.5;exitDx=0;exitDy=0;" edge="1" parent="1" source="Tbf_xBtVYPt_37wN60Tl-13" target="Tbf_xBtVYPt_37wN60Tl-14">
          <mxGeometry relative="1" as="geometry">
            <mxPoint x="510" y="270" as="targetPoint" />
          </mxGeometry>
        </mxCell>
        <mxCell id="Tbf_xBtVYPt_37wN60Tl-12" style="edgeStyle=orthogonalEdgeStyle;rounded=0;orthogonalLoop=1;jettySize=auto;html=1;exitX=0.5;exitY=1;exitDx=0;exitDy=0;entryX=0.5;entryY=0;entryDx=0;entryDy=0;" edge="1" parent="1" source="Tbf_xBtVYPt_37wN60Tl-13" target="Tbf_xBtVYPt_37wN60Tl-15">
          <mxGeometry relative="1" as="geometry" />
        </mxCell>
        <mxCell id="Tbf_xBtVYPt_37wN60Tl-13" value="&lt;span id=&quot;selected_text&quot;&gt;&lt;/span&gt;&lt;span id=&quot;selected_text&quot;&gt;&lt;/span&gt;&lt;span id=&quot;selected_text&quot;&gt;&lt;/span&gt;&lt;span id=&quot;selected_text&quot;&gt;&lt;/span&gt;&lt;span id=&quot;selected_text&quot;&gt;&lt;/span&gt;&lt;span id=&quot;selected_text&quot;&gt;&lt;/span&gt;(5) m == 0" style="rhombus;whiteSpace=wrap;html=1;" vertex="1" parent="1">
          <mxGeometry x="380" y="250" width="90" height="40" as="geometry" />
        </mxCell>
        <mxCell id="Tbf_xBtVYPt_37wN60Tl-14" value="&lt;span id=&quot;selected_text&quot;&gt;&lt;/span&gt;&lt;span id=&quot;selected_text&quot;&gt;&lt;/span&gt;&lt;span id=&quot;selected_text&quot;&gt;&lt;/span&gt;&lt;span id=&quot;selected_text&quot;&gt;&lt;/span&gt;(6) return n" style="rounded=1;whiteSpace=wrap;html=1;" vertex="1" parent="1">
          <mxGeometry x="530" y="250" width="80" height="40" as="geometry" />
        </mxCell>
        <mxCell id="Tbf_xBtVYPt_37wN60Tl-19" style="edgeStyle=orthogonalEdgeStyle;rounded=0;orthogonalLoop=1;jettySize=auto;html=1;exitX=0.5;exitY=1;exitDx=0;exitDy=0;" edge="1" parent="1" source="Tbf_xBtVYPt_37wN60Tl-15" target="Tbf_xBtVYPt_37wN60Tl-20">
          <mxGeometry relative="1" as="geometry">
            <mxPoint x="425" y="430" as="targetPoint" />
          </mxGeometry>
        </mxCell>
        <mxCell id="Tbf_xBtVYPt_37wN60Tl-15" value="&lt;span id=&quot;selected_text&quot;&gt;&lt;/span&gt;&lt;span id=&quot;selected_text&quot;&gt;&lt;/span&gt;&lt;span id=&quot;selected_text&quot;&gt;&lt;/span&gt;&lt;span id=&quot;selected_text&quot;&gt;&lt;/span&gt;&lt;span id=&quot;selected_text&quot;&gt;&lt;/span&gt;(7) n &lt;span id=&quot;selected_text&quot;&gt;&lt;/span&gt;== 0" style="rhombus;whiteSpace=wrap;html=1;" vertex="1" parent="1">
          <mxGeometry x="380" y="330" width="90" height="40" as="geometry" />
        </mxCell>
        <mxCell id="Tbf_xBtVYPt_37wN60Tl-16" style="edgeStyle=orthogonalEdgeStyle;rounded=0;orthogonalLoop=1;jettySize=auto;html=1;exitX=1;exitY=0.5;exitDx=0;exitDy=0;" edge="1" parent="1" target="Tbf_xBtVYPt_37wN60Tl-17">
          <mxGeometry relative="1" as="geometry">
            <mxPoint x="510" y="350" as="targetPoint" />
            <mxPoint x="465" y="350" as="sourcePoint" />
          </mxGeometry>
        </mxCell>
        <mxCell id="Tbf_xBtVYPt_37wN60Tl-17" value="&lt;span id=&quot;selected_text&quot;&gt;&lt;/span&gt;&lt;span id=&quot;selected_text&quot;&gt;&lt;/span&gt;&lt;span id=&quot;selected_text&quot;&gt;&lt;/span&gt;&lt;span id=&quot;selected_text&quot;&gt;&lt;/span&gt;&lt;span id=&quot;selected_text&quot;&gt;&lt;/span&gt;(8) return m" style="rounded=1;whiteSpace=wrap;html=1;" vertex="1" parent="1">
          <mxGeometry x="530" y="330" width="80" height="40" as="geometry" />
        </mxCell>
        <mxCell id="Tbf_xBtVYPt_37wN60Tl-29" style="edgeStyle=orthogonalEdgeStyle;rounded=0;orthogonalLoop=1;jettySize=auto;html=1;exitX=0.5;exitY=1;exitDx=0;exitDy=0;entryX=0.5;entryY=0;entryDx=0;entryDy=0;" edge="1" parent="1" source="Tbf_xBtVYPt_37wN60Tl-20" target="Tbf_xBtVYPt_37wN60Tl-30">
          <mxGeometry relative="1" as="geometry">
            <mxPoint x="425" y="510" as="targetPoint" />
          </mxGeometry>
        </mxCell>
        <mxCell id="Tbf_xBtVYPt_37wN60Tl-41" style="edgeStyle=orthogonalEdgeStyle;rounded=0;orthogonalLoop=1;jettySize=auto;html=1;exitX=0;exitY=0.5;exitDx=0;exitDy=0;entryX=0;entryY=0.5;entryDx=0;entryDy=0;" edge="1" parent="1" source="Tbf_xBtVYPt_37wN60Tl-20" target="Tbf_xBtVYPt_37wN60Tl-40">
          <mxGeometry relative="1" as="geometry">
            <Array as="points">
              <mxPoint x="310" y="435" />
              <mxPoint x="310" y="690" />
            </Array>
          </mxGeometry>
        </mxCell>
        <mxCell id="Tbf_xBtVYPt_37wN60Tl-20" value="(9) m != n" style="rhombus;whiteSpace=wrap;html=1;" vertex="1" parent="1">
          <mxGeometry x="380" y="410" width="90" height="50" as="geometry" />
        </mxCell>
        <mxCell id="Tbf_xBtVYPt_37wN60Tl-21" value="&lt;span id=&quot;selected_text&quot;&gt;&lt;/span&gt;&lt;span id=&quot;selected_text&quot;&gt;&lt;/span&gt;&lt;b&gt;&lt;span id=&quot;selected_text&quot;&gt;&lt;/span&gt;T&lt;/b&gt;" style="text;html=1;align=center;verticalAlign=middle;resizable=0;points=[];autosize=1;strokeColor=none;fillColor=none;" vertex="1" parent="1">
          <mxGeometry x="465" y="80" width="30" height="30" as="geometry" />
        </mxCell>
        <mxCell id="Tbf_xBtVYPt_37wN60Tl-22" value="&lt;span id=&quot;selected_text&quot;&gt;&lt;/span&gt;&lt;span id=&quot;selected_text&quot;&gt;&lt;/span&gt;&lt;b&gt;&lt;span id=&quot;selected_text&quot;&gt;&lt;/span&gt;F&lt;/b&gt;" style="text;html=1;align=center;verticalAlign=middle;resizable=0;points=[];autosize=1;strokeColor=none;fillColor=none;" vertex="1" parent="1">
          <mxGeometry x="425" y="130" width="30" height="30" as="geometry" />
        </mxCell>
        <mxCell id="Tbf_xBtVYPt_37wN60Tl-23" value="&lt;span id=&quot;selected_text&quot;&gt;&lt;/span&gt;&lt;span id=&quot;selected_text&quot;&gt;&lt;/span&gt;&lt;b&gt;&lt;span id=&quot;selected_text&quot;&gt;&lt;/span&gt;T&lt;/b&gt;" style="text;html=1;align=center;verticalAlign=middle;resizable=0;points=[];autosize=1;strokeColor=none;fillColor=none;" vertex="1" parent="1">
          <mxGeometry x="465" y="160" width="30" height="30" as="geometry" />
        </mxCell>
        <mxCell id="Tbf_xBtVYPt_37wN60Tl-24" value="&lt;span id=&quot;selected_text&quot;&gt;&lt;/span&gt;&lt;span id=&quot;selected_text&quot;&gt;&lt;/span&gt;&lt;b&gt;&lt;span id=&quot;selected_text&quot;&gt;&lt;/span&gt;T&lt;/b&gt;" style="text;html=1;align=center;verticalAlign=middle;resizable=0;points=[];autosize=1;strokeColor=none;fillColor=none;" vertex="1" parent="1">
          <mxGeometry x="465" y="240" width="30" height="30" as="geometry" />
        </mxCell>
        <mxCell id="Tbf_xBtVYPt_37wN60Tl-25" value="&lt;span id=&quot;selected_text&quot;&gt;&lt;/span&gt;&lt;span id=&quot;selected_text&quot;&gt;&lt;/span&gt;&lt;b&gt;&lt;span id=&quot;selected_text&quot;&gt;&lt;/span&gt;T&lt;/b&gt;" style="text;html=1;align=center;verticalAlign=middle;resizable=0;points=[];autosize=1;strokeColor=none;fillColor=none;" vertex="1" parent="1">
          <mxGeometry x="465" y="320" width="30" height="30" as="geometry" />
        </mxCell>
        <mxCell id="Tbf_xBtVYPt_37wN60Tl-26" value="&lt;span id=&quot;selected_text&quot;&gt;&lt;/span&gt;&lt;span id=&quot;selected_text&quot;&gt;&lt;/span&gt;&lt;b&gt;&lt;span id=&quot;selected_text&quot;&gt;&lt;/span&gt;F&lt;/b&gt;" style="text;html=1;align=center;verticalAlign=middle;resizable=0;points=[];autosize=1;strokeColor=none;fillColor=none;" vertex="1" parent="1">
          <mxGeometry x="425" y="210" width="30" height="30" as="geometry" />
        </mxCell>
        <mxCell id="Tbf_xBtVYPt_37wN60Tl-27" value="&lt;span id=&quot;selected_text&quot;&gt;&lt;/span&gt;&lt;span id=&quot;selected_text&quot;&gt;&lt;/span&gt;&lt;b&gt;&lt;span id=&quot;selected_text&quot;&gt;&lt;/span&gt;F&lt;/b&gt;" style="text;html=1;align=center;verticalAlign=middle;resizable=0;points=[];autosize=1;strokeColor=none;fillColor=none;" vertex="1" parent="1">
          <mxGeometry x="425" y="290" width="30" height="30" as="geometry" />
        </mxCell>
        <mxCell id="Tbf_xBtVYPt_37wN60Tl-28" value="&lt;span id=&quot;selected_text&quot;&gt;&lt;/span&gt;&lt;span id=&quot;selected_text&quot;&gt;&lt;/span&gt;&lt;b&gt;&lt;span id=&quot;selected_text&quot;&gt;&lt;/span&gt;F&lt;/b&gt;" style="text;html=1;align=center;verticalAlign=middle;resizable=0;points=[];autosize=1;strokeColor=none;fillColor=none;" vertex="1" parent="1">
          <mxGeometry x="425" y="370" width="30" height="30" as="geometry" />
        </mxCell>
        <mxCell id="Tbf_xBtVYPt_37wN60Tl-31" style="edgeStyle=orthogonalEdgeStyle;rounded=0;orthogonalLoop=1;jettySize=auto;html=1;exitX=0.5;exitY=1;exitDx=0;exitDy=0;" edge="1" parent="1" source="Tbf_xBtVYPt_37wN60Tl-30" target="Tbf_xBtVYPt_37wN60Tl-32">
          <mxGeometry relative="1" as="geometry">
            <mxPoint x="425" y="600" as="targetPoint" />
          </mxGeometry>
        </mxCell>
        <mxCell id="Tbf_xBtVYPt_37wN60Tl-33" style="edgeStyle=orthogonalEdgeStyle;rounded=0;orthogonalLoop=1;jettySize=auto;html=1;exitX=1;exitY=0.5;exitDx=0;exitDy=0;" edge="1" parent="1" source="Tbf_xBtVYPt_37wN60Tl-30" target="Tbf_xBtVYPt_37wN60Tl-34">
          <mxGeometry relative="1" as="geometry">
            <mxPoint x="530" y="525" as="targetPoint" />
          </mxGeometry>
        </mxCell>
        <mxCell id="Tbf_xBtVYPt_37wN60Tl-30" value="&lt;span id=&quot;selected_text&quot;&gt;&lt;/span&gt;&lt;span id=&quot;selected_text&quot;&gt;&lt;/span&gt;&lt;span id=&quot;selected_text&quot;&gt;&lt;/span&gt;&lt;span id=&quot;selected_text&quot;&gt;&lt;/span&gt;&lt;span id=&quot;selected_text&quot;&gt;&lt;/span&gt;(10) m &amp;gt; n" style="rhombus;whiteSpace=wrap;html=1;" vertex="1" parent="1">
          <mxGeometry x="380" y="500" width="90" height="50" as="geometry" />
        </mxCell>
        <mxCell id="Tbf_xBtVYPt_37wN60Tl-37" style="edgeStyle=orthogonalEdgeStyle;rounded=0;orthogonalLoop=1;jettySize=auto;html=1;exitX=1;exitY=0.5;exitDx=0;exitDy=0;entryX=1;entryY=0.5;entryDx=0;entryDy=0;" edge="1" parent="1" source="Tbf_xBtVYPt_37wN60Tl-32" target="Tbf_xBtVYPt_37wN60Tl-20">
          <mxGeometry relative="1" as="geometry">
            <Array as="points">
              <mxPoint x="660" y="610" />
              <mxPoint x="660" y="435" />
            </Array>
          </mxGeometry>
        </mxCell>
        <mxCell id="Tbf_xBtVYPt_37wN60Tl-32" value="&lt;span id=&quot;selected_text&quot;&gt;&lt;/span&gt;&lt;span id=&quot;selected_text&quot;&gt;&lt;/span&gt;(11) m = m - n" style="rounded=1;whiteSpace=wrap;html=1;" vertex="1" parent="1">
          <mxGeometry x="380" y="590" width="90" height="40" as="geometry" />
        </mxCell>
        <mxCell id="Tbf_xBtVYPt_37wN60Tl-38" style="edgeStyle=orthogonalEdgeStyle;rounded=0;orthogonalLoop=1;jettySize=auto;html=1;exitX=1;exitY=0.5;exitDx=0;exitDy=0;entryX=1;entryY=0.5;entryDx=0;entryDy=0;" edge="1" parent="1" source="Tbf_xBtVYPt_37wN60Tl-34" target="Tbf_xBtVYPt_37wN60Tl-20">
          <mxGeometry relative="1" as="geometry">
            <Array as="points">
              <mxPoint x="660" y="525" />
              <mxPoint x="660" y="435" />
            </Array>
          </mxGeometry>
        </mxCell>
        <mxCell id="Tbf_xBtVYPt_37wN60Tl-34" value="&lt;span id=&quot;selected_text&quot;&gt;&lt;/span&gt;&lt;span id=&quot;selected_text&quot;&gt;&lt;/span&gt;(12) n = n - m" style="rounded=1;whiteSpace=wrap;html=1;" vertex="1" parent="1">
          <mxGeometry x="520" y="510" width="100" height="30" as="geometry" />
        </mxCell>
        <mxCell id="Tbf_xBtVYPt_37wN60Tl-35" value="&lt;span id=&quot;selected_text&quot;&gt;&lt;/span&gt;&lt;span id=&quot;selected_text&quot;&gt;&lt;/span&gt;&lt;b&gt;&lt;span id=&quot;selected_text&quot;&gt;&lt;/span&gt;T&lt;/b&gt;" style="text;html=1;align=center;verticalAlign=middle;resizable=0;points=[];autosize=1;strokeColor=none;fillColor=none;" vertex="1" parent="1">
          <mxGeometry x="425" y="550" width="30" height="30" as="geometry" />
        </mxCell>
        <mxCell id="Tbf_xBtVYPt_37wN60Tl-36" value="&lt;span id=&quot;selected_text&quot;&gt;&lt;/span&gt;&lt;span id=&quot;selected_text&quot;&gt;&lt;/span&gt;&lt;b&gt;&lt;span id=&quot;selected_text&quot;&gt;&lt;/span&gt;F&lt;/b&gt;" style="text;html=1;align=center;verticalAlign=middle;resizable=0;points=[];autosize=1;strokeColor=none;fillColor=none;" vertex="1" parent="1">
          <mxGeometry x="465" y="500" width="30" height="30" as="geometry" />
        </mxCell>
        <mxCell id="Tbf_xBtVYPt_37wN60Tl-39" value="&lt;span id=&quot;selected_text&quot;&gt;&lt;/span&gt;&lt;span id=&quot;selected_text&quot;&gt;&lt;/span&gt;&lt;b&gt;&lt;span id=&quot;selected_text&quot;&gt;&lt;/span&gt;T&lt;/b&gt;" style="text;html=1;align=center;verticalAlign=middle;resizable=0;points=[];autosize=1;strokeColor=none;fillColor=none;" vertex="1" parent="1">
          <mxGeometry x="425" y="460" width="30" height="30" as="geometry" />
        </mxCell>
        <mxCell id="Tbf_xBtVYPt_37wN60Tl-40" value="&lt;span id=&quot;selected_text&quot;&gt;&lt;/span&gt;&lt;span id=&quot;selected_text&quot;&gt;&lt;/span&gt;(13) retur&lt;span id=&quot;selected_text&quot;&gt;&lt;/span&gt;&lt;span id=&quot;selected_text&quot;&gt;&lt;/span&gt;&lt;span id=&quot;selected_text&quot;&gt;&lt;/span&gt;&lt;span id=&quot;selected_text&quot;&gt;&lt;/span&gt;&lt;span id=&quot;selected_text&quot;&gt;&lt;/span&gt;&lt;span id=&quot;selected_text&quot;&gt;&lt;/span&gt;&lt;span id=&quot;selected_text&quot;&gt;&lt;/span&gt;n m" style="rounded=1;whiteSpace=wrap;html=1;" vertex="1" parent="1">
          <mxGeometry x="380" y="670" width="90" height="40" as="geometry" />
        </mxCell>
        <mxCell id="Tbf_xBtVYPt_37wN60Tl-42" value="&lt;span id=&quot;selected_text&quot;&gt;&lt;/span&gt;&lt;span id=&quot;selected_text&quot;&gt;&lt;/span&gt;&lt;b&gt;&lt;span id=&quot;selected_text&quot;&gt;&lt;/span&gt;F&lt;/b&gt;" style="text;html=1;align=center;verticalAlign=middle;resizable=0;points=[];autosize=1;strokeColor=none;fillColor=none;" vertex="1" parent="1">
          <mxGeometry x="365" y="410" width="30" height="30" as="geometry" />
        </mxCell>
      </root>
    </mxGraphModel>
  </diagram>
</mxfile>
